<?xml version="1.0" encoding="UTF-8" standalone="no"?>
<!-- Created with Inkscape (http://www.inkscape.org/) -->

<svg
 xmlns:dc="http://purl.org/dc/elements/1.1/"
 xmlns:cc="http://creativecommons.org/ns#"
 xmlns:rdf="http://www.w3.org/1999/02/22-rdf-syntax-ns#"
 xmlns:svg="http://www.w3.org/2000/svg"
 xmlns="http://www.w3.org/2000/svg"
 version="1.1"
 width="296"
 height="306"
 id="svg3151">
<metadata
 id="metadata3157">
<rdf:RDF>
<cc:Work
 rdf:about="">
<dc:format>image/svg+xml</dc:format>
<dc:type
 rdf:resource="http://purl.org/dc/dcmitype/StillImage" />
<dc:title></dc:title>
</cc:Work>
</rdf:RDF>
</metadata>
<defs
 id="defs3155" />
<path
 d="M 152.1571,119.96226 77.773578,265.98703 C 98.15464,278.68161 122.22091,286.0151 148.00001,286.0151 174.59155,286.0151 199.3606,278.21209 220.14236,264.77089 z M 3,153 C 3,72.918715 67.918705,8 148,8 228.08129,8 293,72.918705 293,153 293,233.08129 228.08129,298 148,298 67.918715,298 3,233.08129 3,153 z M 281.01511,153 C 281.01511,88.230243 234.72167,34.272903 173.41753,22.410667 L 264.99106,216.34733 C 275.21081,197.51311 281.0151,175.93438 281.0151,153 z M 14.984895,153 C 14.984895,177.21214 21.453958,199.91337 32.757957,219.46952 L 133.97809,20.715168 C 67.106954,27.721039 14.984905,84.273646 14.984905,153.00001 z M 77.773568,265.98703 C 59.217317,254.42906 43.71591,238.42702 32.757957,219.46951 43.715919,238.42702 59.217326,254.42906 77.773568,265.98703 z M 133.97809,20.715159 C 138.5861,20.232388 143.26415,19.984895 148,19.984895 143.26415,19.984895 138.5861,20.232397 133.97809,20.715159 z M 264.99106,216.34733 C 254.32486,236.00434 238.84898,252.67183 220.14235,264.77089 238.84898,252.67183 254.32486,236.00434 264.99106,216.34733 z"
 id="path5" />
</svg>
